<svg xmlns="http://www.w3.org/2000/svg" width="478.479" height="59.825" viewBox="0 0 478.479 59.825">
  <defs>
    <style nonce="l2T3atkEVsmFjDcY140javo6lwuMD3ac">
      .cls-1, .cls-2 {
        fill: #fff;
      }

      .cls-1 {
        fill-rule: evenodd;
      }

      .cls-3 {
        fill: none;
      }

      .cls-4 {
        fill: #ed2224;
      }
    </style>
  </defs>
  <g id="Logo" transform="translate(-140 -9)">
    <g id="Group_5708" data-name="Group 5708" transform="translate(0 -0.781)">
      <g id="Layer_2" data-name="Layer 2" transform="translate(217.056 -24)">
        <g id="Logo-2" data-name="Logo" transform="translate(-77.056 33.781)">
          <g id="Main_Alien_Logo" data-name="Main Alien Logo" transform="translate(0)">
            <g id="Alien" transform="translate(0)">
              <path id="Alien-2" data-name="Alien" class="cls-1" d="M114.828,38.77a8.256,8.256,0,0,0-2.579.414,8.611,8.611,0,0,1,3.579-.233,6.742,6.742,0,0,1,4.71,2.731,12.3,12.3,0,0,1,2.119,6.5,4.058,4.058,0,0,1,.611,2.366c0,1.479-.514,2.679-1.156,2.679h0a17.3,17.3,0,0,1-4.9,7.3,4.418,4.418,0,0,1-2.25,1.2h-.044a3.41,3.41,0,0,1-2.471-.817c-.081-.062-.16-.127-.239-.193a17.693,17.693,0,0,1-4.3-5.484,13.717,13.717,0,0,1-.824-2.009h-.027c-.634,0-1.156-1.2-1.156-2.679a3.949,3.949,0,0,1,.634-2.392q.044-.665.139-1.327a12.229,12.229,0,0,1,1.258-4.02,7.486,7.486,0,0,1,2.183-2.585c-3.169,2.084-7.385,6.684-5.328,10.955,2.918,6.064,4.583,12,10.127,12s5.873-5.941,9.743-12.282C128.231,45.052,120.379,38.77,114.828,38.77Z" transform="translate(-84.609 -31.302)"/>
              <path id="Path_4281" data-name="Path 4281" class="cls-2" d="M76.515,45.794c-1.456-2.622-2.76-5.008-3.246-6.008C71.94,37.049,70.653,34.97,68.6,34.1a69.575,69.575,0,0,0-7.3-2.119c1.229-.628,4.793-.963,7.443-3.1,1.749-1.414.578-5.426-.324-7.351A64.163,64.163,0,0,0,64.8,13.827l-.023-.04q-.17-.289-.353-.578a.267.267,0,0,0-.019-.031c-.123-.193-.25-.4-.385-.607l-.048-.075c-.114-.173-.229-.349-.347-.524l-.079-.116c-.133-.193-.272-.385-.412-.591-.017-.027-.037-.052-.054-.077-.123-.171-.25-.343-.385-.514l-.116-.154c-.148-.193-.3-.385-.457-.591-.114-.144-.229-.285-.345-.424-.077-.092-.156-.181-.233-.272l-.1-.116c-.1-.118-.2-.229-.308-.341l-.021-.023A15.789,15.789,0,0,0,53.534,3.92h-.008a15.833,15.833,0,0,0-7.578,4.833l-.023.023c-.1.112-.2.223-.306.341l-.1.116c-.077.091-.156.179-.233.272-.116.139-.231.279-.345.424-.16.193-.314.4-.464.6l-.116.152c-.139.193-.274.372-.406.555l-.031.044c-.143.193-.281.4-.418.6l-.087.131c-.125.193-.247.368-.364.551l-.031.046-.385.607-.052.085c-.118.193-.233.385-.345.578l-.012.021c-.121.208-.239.412-.353.616l-.015.027c-.112.193-.222.4-.327.6h0c-1.493,2.8-2.31,5.166-2.88,6.382-.9,1.926-2.073,5.937-.324,7.351,2.651,2.14,6.214,2.47,7.443,3.1a72.1,72.1,0,0,0-7.3,2.119c-2.053.861-3.34,2.957-4.669,5.694-.487,1-1.79,3.386-3.246,6.008-.64,1.156-1.31,2.354-1.955,3.5a29.726,29.726,0,0,0,4.623,5.6c.42.4.855.784,1.3,1.156V43.369a2.62,2.62,0,0,1,2.62-2.62H69.933a2.62,2.62,0,0,1,2.62,2.62V56.052c.443-.374.878-.759,1.3-1.156a29.726,29.726,0,0,0,4.623-5.6C77.825,48.148,77.154,46.948,76.515,45.794ZM46.434,30.934c-2.408-1.98-7.865-2.331-7.721-4.207s1.818-5.841,3.514-6.149c0,0-1.308,5.49,3.275,8.645,1.926,1.329,3.71,4.178,1.433,5.871A2.8,2.8,0,0,0,46.434,30.934Zm.836,9.722V35.571l.74-.647.046,5.733Zm8.871-6.2.029-.044v.052Zm.626-1.348c-.193.193-.376.364-.578.541l-.033.027v.052a.21.21,0,0,0-.05,0,4.366,4.366,0,0,1-2.167,1.129h-.046a3.417,3.417,0,0,1-2.468-.817c-.083-.062-.162-.127-.239-.193-.154-.133-.3-.27-.451-.406a13.95,13.95,0,0,1-3.352-3.4,24.956,24.956,0,0,1-2.4-4.816s-1.526-1.023-1.063-4.669c0,0,1.8-2.951,9.606-2.959h0c7.809,0,9.606,2.959,9.606,2.959.04,3.878-1.36,5.278-1.36,5.278a18.34,18.34,0,0,1-2.107,4.2,13.705,13.705,0,0,1-2.9,3.069ZM59.8,40.664h-.786l.046-5.733.74.647Zm.32-5.561c-2.277-1.693-.5-4.542,1.433-5.871,4.59-3.155,3.275-8.645,3.275-8.645,1.7.3,3.369,4.273,3.514,6.149s-5.315,2.227-7.721,4.207a2.8,2.8,0,0,0-.5,4.153Z" transform="translate(-23.535 -3.165)"/>
              <path id="Path_4282" data-name="Path 4282" class="cls-2" d="M94.33,296.74a29.6,29.6,0,0,0,24.547,0Z" transform="translate(-76.603 -239.579)"/>
              <g id="Hood" transform="translate(15.159 0.745)">
                <path id="Path_4283" data-name="Path 4283" class="cls-3" d="M171.609,162.282v-.052l-.029.044Z" transform="translate(-154.132 -131.725)"/>
                <path id="Path_4284" data-name="Path 4284" class="cls-3" d="M114.678,90.7c.148.137.3.274.451.406.077.067.156.133.239.193a3.417,3.417,0,0,0,2.468.817h.046a4.382,4.382,0,0,0,2.167-1.129.21.21,0,0,1,.05,0v-.052l.033-.027c.193-.177.385-.358.578-.541a13.706,13.706,0,0,0,2.911-3.072,24.956,24.956,0,0,0,2.4-4.816s1.526-1.023,1.063-4.669c0,0-1.8-2.951-9.606-2.959h0c-7.809,0-9.606,2.959-9.606,2.959-.462,3.646,1.063,4.669,1.063,4.669a24.955,24.955,0,0,0,2.4,4.816A13.95,13.95,0,0,0,114.678,90.7Z" transform="translate(-102.627 -61.177)"/>
                <path id="Path_4285" data-name="Path 4285" class="cls-3" d="M95.833,273.193a25.88,25.88,0,0,0,14.842-4.623H81a25.88,25.88,0,0,0,14.833,4.623Z" transform="translate(-81 -217.581)"/>
                <path id="Path_4286" data-name="Path 4286" class="cls-4" d="M158,3.87Z" transform="translate(-143.167 -3.87)"/>
              </g>
              <g id="Eyes" transform="translate(20.756 16.366)">
                <g id="UldmHQ.tif" transform="translate(1.745 1.562)">
                  <path id="Path_4287" data-name="Path 4287" class="cls-2" d="M119.97,93.084a4.527,4.527,0,0,1,.543.119,11.531,11.531,0,0,1,1.268.385,5.81,5.81,0,0,1,3.587,4.558c.091.385-.073.578-.47.561a6.211,6.211,0,0,1-3.853-1.318,5.616,5.616,0,0,1-1.8-3.121c-.046-.179-.077-.36-.11-.541-.044-.248-.025-.46.231-.564A1.156,1.156,0,0,1,119.97,93.084Z" transform="translate(-119.113 -93.073)"/>
                </g>
                <g id="nFeoyq.tif" transform="translate(0 0.017)">
                  <path id="Path_4288" data-name="Path 4288" class="cls-2" d="M114.885,92.924c-.609-.422-1.214-.815-1.791-1.244-1.4-1.042-3.228-3.853-1.849-5.586.449-.566,1.377-.283,1.938-.075a13.182,13.182,0,0,1,3.3,1.882c.1.073.193.148.32.245-.013-.042-.013-.06-.021-.067a14.69,14.69,0,0,0-3.055-2.456,4.1,4.1,0,0,0-1.439-.541,1.666,1.666,0,0,0-1.6.611,2.764,2.764,0,0,0-.491,2.637,5.053,5.053,0,0,0,1.551,2.726,16.308,16.308,0,0,0,1.926,1.266C114.045,92.556,114.476,92.722,114.885,92.924Z" transform="translate(-110.057 -85.054)"/>
                </g>
                <g id="UldmHQ.tif-2" data-name="UldmHQ.tif" transform="translate(10.465 1.536)">
                  <path id="Path_4289" data-name="Path 4289" class="cls-2" d="M169.806,92.948a4.538,4.538,0,0,0-.543.121,11.958,11.958,0,0,0-1.268.374A5.813,5.813,0,0,0,164.408,98c-.091.385.073.578.47.562a6.211,6.211,0,0,0,3.853-1.318,5.629,5.629,0,0,0,1.8-3.121c.046-.179.077-.362.11-.543.044-.248.025-.46-.231-.562A1.181,1.181,0,0,0,169.806,92.948Z" transform="translate(-164.384 -92.936)"/>
                </g>
                <g id="nFeoyq.tif-2" data-name="nFeoyq.tif" transform="translate(11.74)">
                  <path id="Path_4290" data-name="Path 4290" class="cls-2" d="M172.926,92.831c.609-.42,1.214-.813,1.791-1.244,1.4-1.04,3.228-3.853,1.849-5.586-.449-.566-1.377-.285-1.938-.075a13.174,13.174,0,0,0-3.3,1.88l-.331.247a.341.341,0,0,1,.021-.067,14.691,14.691,0,0,1,3.061-2.454,4.137,4.137,0,0,1,1.439-.541,1.662,1.662,0,0,1,1.6.613,2.763,2.763,0,0,1,.491,2.637,5.045,5.045,0,0,1-1.553,2.724,15.909,15.909,0,0,1-1.926,1.268C173.76,92.462,173.337,92.629,172.926,92.831Z" transform="translate(-171 -84.963)"/>
                </g>
              </g>
              <g id="Top_circle" data-name="Top circle">
                <path id="Path_4291" data-name="Path 4291" class="cls-2" d="M167.709,4.486a26.109,26.109,0,0,1,15.724,37.4c.641,1.156,1.312,2.354,1.955,3.5A29.544,29.544,0,0,0,160.46,0h0A15.662,15.662,0,0,1,167.709,4.486Z" transform="translate(-129.995)"/>
                <path id="Path_4292" data-name="Path 4292" class="cls-2" d="M5.774,29.54A26.1,26.1,0,0,1,24.592,4.486,15.671,15.671,0,0,1,31.839,0h0A29.544,29.544,0,0,0,6.913,45.386c.643-1.156,1.314-2.348,1.955-3.5A25.934,25.934,0,0,1,5.774,29.54Z" transform="translate(-2.306)"/>
              </g>
            </g>
            <g id="Bottom_of_Computer" data-name="Bottom of Computer" transform="translate(11.537 57.159)">
              <path id="Path_4293" data-name="Path 4293" class="cls-2" d="M98.636,296.73H62.689a.489.489,0,0,0-.489.489v.443a.489.489,0,0,0,.489.489H98.636a.489.489,0,0,0,.489-.489v-.443A.489.489,0,0,0,98.636,296.73Z" transform="translate(-62.2 -296.73)"/>
            </g>
            <g id="DeltaShip_3.0" data-name="DeltaShip 3.0" transform="translate(11.828 38.549)">
              <path id="Path_4294" data-name="Path 4294" class="cls-2" d="M98.247,200.12H65.378a1.67,1.67,0,0,0-1.668,1.67v14.384a1.668,1.668,0,0,0,1.668,1.668H98.247a1.67,1.67,0,0,0,1.67-1.668V201.79A1.67,1.67,0,0,0,98.247,200.12Zm-16.726,4.159.214-.536v-.01h0a.19.19,0,0,1,.017-.029.148.148,0,0,1,.035-.035h.164l.017.01h0l.015.012h0l.015.019h0a.1.1,0,0,1,.01.021h0l.214.536.32.8,1.464,3.506a.192.192,0,0,1,.013.081v.012h0a.124.124,0,0,1,0,.025h0a.228.228,0,0,1-.017.029h0l-.01.012-.012.013h-.01a.081.081,0,0,1-.027.012h-.133l-.144-.066-.044-.019-.039-.015h-.021l-.029-.013h-.021l-.04-.015-.035-.013-.1-.037-.035-.013h-.015l-.035-.012-.044-.013h-.017l-.131-.039-.1-.025-.042-.012-.048-.01-.083-.017h-.129a.913.913,0,0,1-1.385,0h-.129l-.044.01h-.035l-.092.021-.1.025-.131.039h-.017l-.042.014-.037.012h-.01l-.031.012-.135.048-.042.017H80.4l-.052.021-.081.035-.146.066a.175.175,0,0,1-.075.015h-.116l-.023-.013-.013-.012h0l-.012-.012h0l-.01-.013h0a.123.123,0,0,1-.012-.031h0a.193.193,0,0,1,.012-.092l1.348-3.371Zm-2.965-1.464.237-.726.235.726.726.237-.726.235-.235.726-.237-.726-.726-.235Zm1.514,10.5a4.754,4.754,0,0,1-1.3-.826q-.545.052-1.1.069c-.345.01-.693.01-1.04-.01a7.792,7.792,0,0,1-1.048-.119c-.087-.017-.175-.037-.262-.058s-.175-.044-.262-.073a2.716,2.716,0,0,1-.516-.22,1.673,1.673,0,0,1-.247-.166,1.311,1.311,0,0,1-.22-.229.983.983,0,0,1-.152-.3.963.963,0,0,1-.04-.337,1.109,1.109,0,0,1,.064-.314,1.541,1.541,0,0,1,.123-.274,2.31,2.31,0,0,1,.158-.237l.042-.056.044-.054c.029-.035.06-.069.091-.1a4.38,4.38,0,0,1,.385-.372c.135-.116.275-.223.416-.326a10.108,10.108,0,0,1,.888-.549c.148-.085.3-.168.453-.247s.308-.156.462-.229l.258-.121a4.728,4.728,0,0,1,3.754-3.8l-.412,1.033a4.359,4.359,0,0,0-2.244,6.029h-.11l-.36.027a4.944,4.944,0,0,1-.327-.636,4.7,4.7,0,0,1-.37-1.834q0-.168.012-.335l-.019.01c-.148.075-.3.154-.445.233s-.291.162-.433.247a9.819,9.819,0,0,0-.83.549c-.131.1-.258.193-.385.31a4.028,4.028,0,0,0-.341.337l-.075.091-.035.044-.035.046a2.044,2.044,0,0,0-.119.193.874.874,0,0,0-.117.385.468.468,0,0,0,.1.314.983.983,0,0,0,.312.249,2.169,2.169,0,0,0,.422.168c.075.023.152.042.229.06s.156.035.237.048a7.385,7.385,0,0,0,.975.092c.331.012.663,0,.994-.01.2-.01.4-.023.6-.04.464-.04.928-.1,1.389-.173q.611-.1,1.214-.225v.017l.062.607c-.385.077-.79.143-1.187.193-.206.029-.412.054-.618.077a4.34,4.34,0,0,0,1.926,1.156,4.665,4.665,0,0,1-.957-.308Zm2.41-2.462-.5,4.935a.09.09,0,0,1,0,.027.1.1,0,0,1-.15,0v-.023l-.493-4.935a1.273,1.273,0,0,1-.7-1.138,1.26,1.26,0,0,1,.245-.749c.065-.019.133-.037.193-.052a1.262,1.262,0,0,0,.248.152,1.4,1.4,0,0,0,.343.108,1.7,1.7,0,0,0-.069.5c0,.441.141.8.314.8s.314-.358.314-.8a1.7,1.7,0,0,0-.071-.5,1.4,1.4,0,0,0,.343-.108,1.21,1.21,0,0,0,.248-.152c.067.015.133.033.193.052a1.26,1.26,0,0,1,.245.749,1.275,1.275,0,0,1-.7,1.135Zm5.1-.946h0c-.306.168-.618.322-.932.468l-.118.054-.118.054-.05.021-.069.031-.06.027-.058.025-.239.1-.241.1q-.48.193-.963.362l-.245.085-.112.035-.123.04-.245.079-.247.077c-.268.081-.537.158-.807.233l.071-.709.534-.166.239-.079.239-.081.118-.04.119-.042.235-.087q.472-.173.932-.366l.231-.1.229-.1.056-.025.058-.027.112-.052.114-.052.114-.056.233-.114c.22-.11.435-.223.647-.343h0a.368.368,0,1,1,.36.64Zm2.159-2.55a.986.986,0,0,1-.065.262,1.247,1.247,0,0,1-.123.229,1.484,1.484,0,0,1-.164.193c.04-.075.081-.15.116-.227a1.467,1.467,0,0,0,.085-.233.994.994,0,0,0,.037-.237v-.116a.577.577,0,0,0-.027-.114.651.651,0,0,0-.108-.2.973.973,0,0,0-.166-.168,1.31,1.31,0,0,0-.2-.133l-.054-.027-.056-.027-.056-.025-.058-.023-.058-.021-.058-.021-.118-.039c-.079-.023-.16-.044-.241-.064-.164-.037-.327-.064-.493-.085a8.762,8.762,0,0,0-1.006-.064c-.385,0-.771.012-1.156.042a4.608,4.608,0,0,1,.485.875,4.669,4.669,0,0,1,.37,1.834v.083l-.035.017a4.357,4.357,0,0,0-3.467-3.924h0l-.322-.805a4.723,4.723,0,0,1,2.444,1.3,4.272,4.272,0,0,1,.364.408c.441-.029.882-.039,1.323-.025a9.107,9.107,0,0,1,1.025.087,4.236,4.236,0,0,1,1,.262l.062.025.058.029.06.029.058.033a1.386,1.386,0,0,1,.22.15,1.13,1.13,0,0,1,.193.193.786.786,0,0,1,.121.248.723.723,0,0,1,.017.283Z" transform="translate(-63.71 -200.12)"/>
              <path id="Path_4295" data-name="Path 4295" class="cls-2" d="M156.456,230.64c.229,0,.414-.281.414-.63s-.193-.63-.414-.63-.416.281-.416.63S156.225,230.64,156.456,230.64Z" transform="translate(-138.254 -223.744)"/>
            </g>
          </g>
          <g id="Stars" transform="translate(7.445 11.08)">
            <path id="Path_4296" data-name="Path 4296" class="cls-1" d="M45.527,62.391h0Zm-1-.914a.842.842,0,0,1-.945.927c.895.044.945,1.1.945,1.1s.048-1.047.945-1.1a.854.854,0,0,1-.945-.934Zm-.937.919h0Zm-4.9,5.61a.842.842,0,0,1-.945.927c.895.044.945,1.1.945,1.1s.048-1.047.945-1.1A.844.844,0,0,1,38.688,68.007Zm1,.914h0Zm-1.947,0h0Zm5.012,6.619h0Zm-1-.914a.847.847,0,0,1-.945.927c.895.044.945,1.1.945,1.1s.048-1.047.945-1.1a.833.833,0,0,1-.936-.921Zm-.945.927h0Zm-2.413,5.128a1.085,1.085,0,0,1-1.218,1.188c1.155.058,1.218,1.4,1.218,1.4s.063-1.342,1.218-1.4A1.075,1.075,0,0,1,38.4,80.686Zm1.3,1.183h0Zm-2.51,0h0ZM73.289,62.4h0Zm1.947,0h0Zm-1-.914a.842.842,0,0,1-.945.927c.895.044.945,1.1.945,1.1s.048-1.047.945-1.1a.86.86,0,0,1-.937-.94Zm7.136,8.859s.048-1.047.945-1.1a.849.849,0,0,1-.945-.927.842.842,0,0,1-.945.927C81.319,69.285,81.369,70.341,81.369,70.341Zm-1-1.1h0Zm1.947,0h0Zm-4.34,4.3h0Zm1.89,0h0Zm-.945-.927a.847.847,0,0,1-.945.927c.895.044.945,1.1.945,1.1s.048-1.047.945-1.1A.844.844,0,0,1,78.919,72.614ZM80,81.779h0Zm2.6,0h.08a.265.265,0,0,0-.076,0Zm-1.3-1.269A1.16,1.16,0,0,1,80,81.779c1.233.062,1.3,1.5,1.3,1.5s.067-1.433,1.3-1.5a1.158,1.158,0,0,1-1.3-1.269Z" transform="translate(-37.11 -61.47)"/>
          </g>
        </g>
      </g>
    </g>
    <g id="Space_CAMP_Title" data-name="Space CAMP Title" transform="translate(216.547 28.074)">
      <path id="Path_4134" data-name="Path 4134" class="cls-2" d="M1802.231,513.887a6.873,6.873,0,0,1-3.473-3.7,7.449,7.449,0,0,1,0-5.453,6.874,6.874,0,0,1,3.473-3.7,5.989,5.989,0,0,1,2.562-.551H1834.7a2.212,2.212,0,0,1,1.675.734,2.648,2.648,0,0,1,0,3.565,2.213,2.213,0,0,1-1.675.734h-30a1.819,1.819,0,0,0-1.306.551,1.851,1.851,0,0,0-.566,1.388,1.881,1.881,0,0,0,.566,1.363,1.777,1.777,0,0,0,1.306.576h27.245a6.151,6.151,0,0,1,2.586.551,6.739,6.739,0,0,1,3.5,3.722,7.3,7.3,0,0,1,.517,2.753,7.129,7.129,0,0,1-1.921,4.929,6.266,6.266,0,0,1-2.094,1.467,6.409,6.409,0,0,1-2.586.525h-29.858a2.214,2.214,0,0,1-1.675-.734,2.648,2.648,0,0,1,0-3.565,2.215,2.215,0,0,1,1.675-.734h30.054a1.74,1.74,0,0,0,1.281-.55,1.84,1.84,0,0,0,.542-1.337,1.992,1.992,0,0,0-.542-1.416,1.7,1.7,0,0,0-1.281-.576h-27.344A5.994,5.994,0,0,1,1802.231,513.887Z" transform="translate(-1798.24 -499.44)"/>
      <path id="Path_4135" data-name="Path 4135" class="cls-2" d="M2961.34,503a2.507,2.507,0,0,1,.69-1.782,2.213,2.213,0,0,1,1.676-.734h29.511a6.151,6.151,0,0,1,2.587.551,6.891,6.891,0,0,1,3.547,3.7,7.441,7.441,0,0,1,0,5.453,6.89,6.89,0,0,1-3.547,3.7,6.157,6.157,0,0,1-2.587.55H2967.6a1.758,1.758,0,0,0-1.085.629,1.962,1.962,0,0,0-.442,1.31v4.456a2.461,2.461,0,0,1-.715,1.783,2.236,2.236,0,0,1-1.65.734,2.213,2.213,0,0,1-1.676-.734,2.508,2.508,0,0,1-.69-1.783V515.8a7.02,7.02,0,0,1,.444-2.49,6.062,6.062,0,0,1,1.257-2.045,6.132,6.132,0,0,1,1.872-1.363,5.448,5.448,0,0,1,2.341-.5h26.162a1.82,1.82,0,0,0,1.3-.55,1.859,1.859,0,0,0,.566-1.392,1.879,1.879,0,0,0-.567-1.363,1.78,1.78,0,0,0-1.305-.577h-29.708a2.214,2.214,0,0,1-1.676-.734A2.506,2.506,0,0,1,2961.34,503Z" transform="translate(-2916.113 -499.436)"/>
      <path id="Path_4136" data-name="Path 4136" class="cls-2" d="M4019.678,498.076a2.254,2.254,0,0,1-3.5.21,2.51,2.51,0,0,1-.689-1.783,2.26,2.26,0,0,1,.493-1.52l11.972-17.146a6.409,6.409,0,0,1,2.216-1.966,6.126,6.126,0,0,1,5.765-.079,5.847,5.847,0,0,1,2.167,1.887l11.973,17.041a3.635,3.635,0,0,1,.492.813,2.376,2.376,0,0,1,.2.97,2.509,2.509,0,0,1-.689,1.783,2.214,2.214,0,0,1-1.676.734,2.164,2.164,0,0,1-1.872-1l-11.479-16.3a10.975,10.975,0,0,0-.863-.918,1.378,1.378,0,0,0-2.119,0,6.619,6.619,0,0,0-.812.918Z" transform="translate(-3929.27 -475.11)"/>
      <path id="Path_4137" data-name="Path 4137" class="cls-2" d="M5017.689,511.92a13.682,13.682,0,0,1,.616-4.011,12.536,12.536,0,0,1,1.8-3.67,10.055,10.055,0,0,1,2.857-2.7,7,7,0,0,1,3.794-1.049h28.724a2.213,2.213,0,0,1,1.675.734,2.651,2.651,0,0,1,0,3.565,2.211,2.211,0,0,1-1.675.734h-27.69a4.933,4.933,0,0,0-4.458,2.255,5.77,5.77,0,0,0-.838,2.069,9.779,9.779,0,0,0,0,4.141,5.788,5.788,0,0,0,.838,2.069,4.93,4.93,0,0,0,4.458,2.254h27.69a2.213,2.213,0,0,1,1.675.734,2.651,2.651,0,0,1,0,3.565,2.213,2.213,0,0,1-1.675.734h-29.217a6.34,6.34,0,0,1-3.6-1.049,9.638,9.638,0,0,1-2.683-2.7,13.1,13.1,0,0,1-1.7-3.691A14.28,14.28,0,0,1,5017.689,511.92Z" transform="translate(-4892.5 -499.44)"/>
      <path id="Path_4138" data-name="Path 4138" class="cls-2" d="M6177,503.007a2.507,2.507,0,0,1,.69-1.782,2.212,2.212,0,0,1,1.675-.734H6214.3a2.214,2.214,0,0,1,1.675.734,2.648,2.648,0,0,1,0,3.565,2.213,2.213,0,0,1-1.675.734h-34.931a2.211,2.211,0,0,1-1.675-.734A2.514,2.514,0,0,1,6177,503.007Zm6.011,20.344a5.165,5.165,0,0,1-2.168-.5,6.115,6.115,0,0,1-1.921-1.389,7.3,7.3,0,0,1-1.38-2.152,7.109,7.109,0,0,1-.542-2.831v-4.717a2.049,2.049,0,0,1,.764-1.887,4.676,4.676,0,0,1,2.391-.472h33.057a2.215,2.215,0,0,1,1.676.735,2.651,2.651,0,0,1,0,3.564,2.211,2.211,0,0,1-1.675.734h-31.48v2.568a1.22,1.22,0,0,0,.418.918,1.555,1.555,0,0,0,1.108.393H6214.3a2.213,2.213,0,0,1,1.676.734,2.649,2.649,0,0,1,0,3.565,2.213,2.213,0,0,1-1.676.734Z" transform="translate(-6006.729 -499.44)"/>
      <path id="Path_4139" data-name="Path 4139" class="cls-2" d="M7548.75,511.92a13.666,13.666,0,0,1,.616-4.011,12.546,12.546,0,0,1,1.8-3.67,10.041,10.041,0,0,1,2.856-2.7,7.006,7.006,0,0,1,3.794-1.049h28.722a2.209,2.209,0,0,1,1.675.734,2.647,2.647,0,0,1,0,3.565,2.207,2.207,0,0,1-1.675.734H7558.85a4.934,4.934,0,0,0-4.458,2.255,5.789,5.789,0,0,0-.838,2.069,10.77,10.77,0,0,0-.222,2.069,10.966,10.966,0,0,0,.222,2.072,5.806,5.806,0,0,0,.838,2.069,4.931,4.931,0,0,0,4.458,2.254h27.689a2.209,2.209,0,0,1,1.675.734,2.646,2.646,0,0,1,0,3.565,2.209,2.209,0,0,1-1.675.734h-29.214a6.339,6.339,0,0,1-3.6-1.049,9.674,9.674,0,0,1-2.686-2.7,13.151,13.151,0,0,1-1.7-3.691A14.228,14.228,0,0,1,7548.75,511.92Z" transform="translate(-7316.138 -499.44)"/>
      <path id="Path_4140" data-name="Path 4140" class="cls-2" d="M8712.237,498.076a2.254,2.254,0,0,1-3.5.21,2.5,2.5,0,0,1-.689-1.783,2.254,2.254,0,0,1,.5-1.52l11.97-17.147a6.433,6.433,0,0,1,2.217-1.966,6.126,6.126,0,0,1,5.766-.079,5.848,5.848,0,0,1,2.168,1.887l11.969,17.041a3.561,3.561,0,0,1,.5.813,2.371,2.371,0,0,1,.2.97,2.5,2.5,0,0,1-.691,1.783,2.2,2.2,0,0,1-1.673.734,2.164,2.164,0,0,1-1.872-1l-11.478-16.3a11.048,11.048,0,0,0-.865-.918,1.378,1.378,0,0,0-2.118,0,6.589,6.589,0,0,0-.812.918Z" transform="translate(-8429.355 -475.11)"/>
      <path id="Path_4141" data-name="Path 4141" class="cls-2" d="M9783.493,520.795a2.513,2.513,0,0,1-.69,1.783,2.278,2.278,0,0,1-3.35,0,2.506,2.506,0,0,1-.691-1.783v-11.43q0-2.149-.245-2.149-.2,0-1.38,1.415l-10.84,13.108a4,4,0,0,1-1.576,1.18,5.386,5.386,0,0,1-4.04,0,4,4,0,0,1-1.575-1.18l-10.84-13.108q-1.135-1.415-1.381-1.415c-.162,0-.246.716-.246,2.149v11.43a2.5,2.5,0,0,1-.689,1.783,2.28,2.28,0,0,1-3.352,0,2.519,2.519,0,0,1-.687-1.783V505.484a5.647,5.647,0,0,1,1.134-3.565,3.962,3.962,0,0,1,5.222-.839,9.111,9.111,0,0,1,1.725,1.521l11.331,13.737a5.628,5.628,0,0,0,.615.55,1.154,1.154,0,0,0,1.529,0,5.421,5.421,0,0,0,.613-.55l11.284-13.737h.048a5.268,5.268,0,0,1,1.676-1.573,4.218,4.218,0,0,1,2.168-.577,3.708,3.708,0,0,1,3.1,1.469,5.655,5.655,0,0,1,1.135,3.565Z" transform="translate(-9425.015 -499.401)"/>
      <path id="Path_4142" data-name="Path 4142" class="cls-2" d="M10937.938,503a2.5,2.5,0,0,1,.69-1.782,2.217,2.217,0,0,1,1.676-.734h29.511a6.143,6.143,0,0,1,2.586.551,6.886,6.886,0,0,1,3.549,3.7,7.454,7.454,0,0,1,0,5.453,6.885,6.885,0,0,1-3.549,3.7,6.151,6.151,0,0,1-2.586.55H10944.2a1.758,1.758,0,0,0-1.085.629,1.958,1.958,0,0,0-.444,1.31v4.456a2.467,2.467,0,0,1-.712,1.783,2.24,2.24,0,0,1-1.651.734,2.214,2.214,0,0,1-1.676-.734,2.513,2.513,0,0,1-.69-1.783V515.8a6.988,6.988,0,0,1,.444-2.49,6.039,6.039,0,0,1,1.257-2.045,6.135,6.135,0,0,1,1.87-1.363,5.458,5.458,0,0,1,2.342-.5h26.162a1.818,1.818,0,0,0,1.3-.55,1.862,1.862,0,0,0,.567-1.39,1.88,1.88,0,0,0-.567-1.363,1.776,1.776,0,0,0-1.3-.577H10940.3a2.215,2.215,0,0,1-1.676-.734A2.515,2.515,0,0,1,10937.938,503Z" transform="translate(-10574.536 -499.436)"/>
    </g>
  </g>
</svg>
